%TF.GenerationSoftware,KiCad,Pcbnew,8.0.4*%
%TF.CreationDate,2025-09-18T13:33:47+03:00*%
%TF.ProjectId,EEG_PCB,4545475f-5043-4422-9e6b-696361645f70,rev?*%
%TF.SameCoordinates,Original*%
%TF.FileFunction,Soldermask,Bot*%
%TF.FilePolarity,Negative*%
%FSLAX46Y46*%
G04 Gerber Fmt 4.6, Leading zero omitted, Abs format (unit mm)*
G04 Created by KiCad (PCBNEW 8.0.4) date 2025-09-18 13:33:47*
%MOMM*%
%LPD*%
G01*
G04 APERTURE LIST*
%ADD10C,1.600200*%
%ADD11R,1.600000X1.600000*%
%ADD12C,1.600000*%
%ADD13O,1.600000X1.600000*%
%ADD14R,2.400000X1.600000*%
%ADD15O,2.400000X1.600000*%
%ADD16R,3.000000X3.000000*%
%ADD17C,3.000000*%
%ADD18C,4.300000*%
%ADD19R,1.700000X1.700000*%
%ADD20O,1.700000X1.700000*%
G04 APERTURE END LIST*
D10*
%TO.C,U5*%
X204978000Y-54356000D03*
X204978000Y-51816000D03*
X204978000Y-49276000D03*
X204978000Y-46736000D03*
%TD*%
D11*
%TO.C,C2*%
X193588000Y-53340000D03*
D12*
X196088000Y-53340000D03*
%TD*%
%TO.C,R6*%
X169926000Y-128016000D03*
D13*
X159766000Y-128016000D03*
%TD*%
D11*
%TO.C,C6*%
X177800000Y-78421113D03*
D12*
X177800000Y-75921113D03*
%TD*%
%TO.C,R21*%
X179832000Y-61976000D03*
D13*
X189992000Y-61976000D03*
%TD*%
D11*
%TO.C,C5*%
X177800000Y-113729888D03*
D12*
X177800000Y-116229888D03*
%TD*%
D11*
%TO.C,C14*%
X208788000Y-123404000D03*
D12*
X208788000Y-120904000D03*
%TD*%
D14*
%TO.C,U2*%
X182372000Y-70104000D03*
D15*
X182372000Y-72644000D03*
X182372000Y-75184000D03*
X182372000Y-77724000D03*
X182372000Y-80264000D03*
X182372000Y-82804000D03*
X182372000Y-85344000D03*
X189992000Y-85344000D03*
X189992000Y-82804000D03*
X189992000Y-80264000D03*
X189992000Y-77724000D03*
X189992000Y-75184000D03*
X189992000Y-72644000D03*
X189992000Y-70104000D03*
%TD*%
D12*
%TO.C,R16*%
X173228000Y-92964000D03*
D13*
X173228000Y-82804000D03*
%TD*%
D16*
%TO.C,RV1*%
X196088000Y-141224000D03*
D17*
X201088000Y-141224000D03*
X206088000Y-141224000D03*
%TD*%
D12*
%TO.C,R13*%
X189738000Y-89408000D03*
D13*
X179578000Y-89408000D03*
%TD*%
D12*
%TO.C,R8*%
X158496000Y-120904000D03*
D13*
X158496000Y-110744000D03*
%TD*%
D12*
%TO.C,R12*%
X213614000Y-108204000D03*
D13*
X213614000Y-98044000D03*
%TD*%
D18*
%TO.C,H2*%
X214884000Y-50800000D03*
%TD*%
D12*
%TO.C,R28*%
X201168000Y-75692000D03*
D13*
X201168000Y-65532000D03*
%TD*%
D12*
%TO.C,R18*%
X194056000Y-58420000D03*
D13*
X183896000Y-58420000D03*
%TD*%
D19*
%TO.C,J9*%
X156210000Y-128016000D03*
%TD*%
D11*
%TO.C,C16*%
X193358888Y-116332000D03*
D12*
X195858888Y-116332000D03*
%TD*%
D19*
%TO.C,J1*%
X208280000Y-51816000D03*
D20*
X208280000Y-54356000D03*
%TD*%
D11*
%TO.C,C9*%
X193358888Y-110490000D03*
D12*
X195858888Y-110490000D03*
%TD*%
D11*
%TO.C,C1*%
X195326000Y-46546888D03*
D12*
X195326000Y-49046888D03*
%TD*%
D16*
%TO.C,RV3*%
X215392000Y-91280000D03*
D17*
X215392000Y-86280000D03*
X215392000Y-81280000D03*
%TD*%
D11*
%TO.C,C18*%
X180848000Y-101092000D03*
D12*
X183348000Y-101092000D03*
%TD*%
%TO.C,R10*%
X202692000Y-105704000D03*
D13*
X192532000Y-105704000D03*
%TD*%
D19*
%TO.C,J6*%
X195072000Y-93213000D03*
D20*
X195072000Y-95753000D03*
%TD*%
D11*
%TO.C,C7*%
X192850888Y-125476000D03*
D12*
X195350888Y-125476000D03*
%TD*%
%TO.C,R11*%
X206756000Y-112308000D03*
D13*
X216916000Y-112308000D03*
%TD*%
D19*
%TO.C,J4*%
X201163000Y-81788000D03*
D20*
X203703000Y-81788000D03*
%TD*%
D11*
%TO.C,C11*%
X180340000Y-140716000D03*
D12*
X177840000Y-140716000D03*
%TD*%
%TO.C,R2*%
X178308000Y-133604000D03*
D13*
X178308000Y-123444000D03*
%TD*%
D11*
%TO.C,C3*%
X177292000Y-48768000D03*
D12*
X177292000Y-51268000D03*
%TD*%
D19*
%TO.C,J8*%
X156210000Y-137922000D03*
%TD*%
D18*
%TO.C,H4*%
X146304000Y-112776000D03*
%TD*%
D11*
%TO.C,C22*%
X196088000Y-66802000D03*
D12*
X193588000Y-66802000D03*
%TD*%
D11*
%TO.C,C15*%
X202692000Y-114808000D03*
D12*
X202692000Y-112308000D03*
%TD*%
%TO.C,R9*%
X202692000Y-120944000D03*
D13*
X192532000Y-120944000D03*
%TD*%
D11*
%TO.C,C24*%
X173776000Y-60960000D03*
D12*
X176276000Y-60960000D03*
%TD*%
D19*
%TO.C,J7*%
X213995000Y-123444000D03*
D20*
X213995000Y-125984000D03*
%TD*%
D14*
%TO.C,U3*%
X182611000Y-46492000D03*
D15*
X182611000Y-49032000D03*
X182611000Y-51572000D03*
X182611000Y-54112000D03*
X190231000Y-54112000D03*
X190231000Y-51572000D03*
X190231000Y-49032000D03*
X190231000Y-46492000D03*
%TD*%
D12*
%TO.C,R17*%
X183896000Y-65532000D03*
D13*
X173736000Y-65532000D03*
%TD*%
D11*
%TO.C,C8*%
X183428000Y-140716000D03*
D12*
X185928000Y-140716000D03*
%TD*%
D11*
%TO.C,C4*%
X192850888Y-131064000D03*
D12*
X195350888Y-131064000D03*
%TD*%
%TO.C,R23*%
X205740000Y-77216000D03*
D13*
X205740000Y-67056000D03*
%TD*%
D11*
%TO.C,C20*%
X174752000Y-104140000D03*
D12*
X172252000Y-104140000D03*
%TD*%
D11*
%TO.C,C21*%
X169632000Y-82804000D03*
D12*
X167132000Y-82804000D03*
%TD*%
%TO.C,R26*%
X189738000Y-102743000D03*
D13*
X189738000Y-92583000D03*
%TD*%
D14*
%TO.C,U1*%
X181864000Y-128564000D03*
D15*
X181864000Y-131104000D03*
X181864000Y-133644000D03*
X181864000Y-136184000D03*
X189484000Y-136184000D03*
X189484000Y-133644000D03*
X189484000Y-131104000D03*
X189484000Y-128564000D03*
%TD*%
D12*
%TO.C,R19*%
X169164000Y-56388000D03*
D13*
X179324000Y-56388000D03*
%TD*%
D18*
%TO.C,H1*%
X147066000Y-52070000D03*
%TD*%
D12*
%TO.C,C13*%
X169926000Y-131318000D03*
X164926000Y-131318000D03*
%TD*%
%TO.C,C12*%
X169926000Y-134620000D03*
X164926000Y-134620000D03*
%TD*%
%TO.C,R22*%
X203200000Y-61976000D03*
D13*
X193040000Y-61976000D03*
%TD*%
D12*
%TO.C,R15*%
X183388000Y-96012000D03*
D13*
X173228000Y-96012000D03*
%TD*%
D19*
%TO.C,J5*%
X167640000Y-75433000D03*
D20*
X167640000Y-77973000D03*
%TD*%
D11*
%TO.C,C25*%
X177800000Y-69660888D03*
D12*
X177800000Y-72160888D03*
%TD*%
%TO.C,R1*%
X169926000Y-137922000D03*
D13*
X159766000Y-137922000D03*
%TD*%
D12*
%TO.C,R14*%
X177800000Y-100584000D03*
D13*
X177800000Y-110744000D03*
%TD*%
D11*
%TO.C,C10*%
X193588000Y-78232000D03*
D12*
X196088000Y-78232000D03*
%TD*%
D11*
%TO.C,C19*%
X177521112Y-86549113D03*
D12*
X177521112Y-84049113D03*
%TD*%
%TO.C,R4*%
X161544000Y-124206000D03*
D13*
X151384000Y-124206000D03*
%TD*%
D19*
%TO.C,J3*%
X197104000Y-85344000D03*
D20*
X197104000Y-87884000D03*
%TD*%
D12*
%TO.C,R27*%
X173228000Y-70104000D03*
D13*
X173228000Y-80264000D03*
%TD*%
D11*
%TO.C,C23*%
X196088000Y-72644000D03*
D12*
X193588000Y-72644000D03*
%TD*%
%TO.C,R25*%
X208788000Y-132588000D03*
D13*
X198628000Y-132588000D03*
%TD*%
D12*
%TO.C,R20*%
X169164000Y-72136000D03*
D13*
X169164000Y-61976000D03*
%TD*%
D12*
%TO.C,R3*%
X171704000Y-120650000D03*
D13*
X161544000Y-120650000D03*
%TD*%
D12*
%TO.C,R7*%
X174752000Y-130810000D03*
D13*
X174752000Y-120650000D03*
%TD*%
D12*
%TO.C,R5*%
X154940000Y-141732000D03*
D13*
X144780000Y-141732000D03*
%TD*%
D14*
%TO.C,U4*%
X182103000Y-105699000D03*
D15*
X182103000Y-108239000D03*
X182103000Y-110779000D03*
X182103000Y-113319000D03*
X182103000Y-115859000D03*
X182103000Y-118399000D03*
X182103000Y-120939000D03*
X189723000Y-120939000D03*
X189723000Y-118399000D03*
X189723000Y-115859000D03*
X189723000Y-113319000D03*
X189723000Y-110779000D03*
X189723000Y-108239000D03*
X189723000Y-105699000D03*
%TD*%
D19*
%TO.C,J10*%
X145796000Y-124206000D03*
D20*
X145796000Y-121666000D03*
%TD*%
D11*
%TO.C,C17*%
X207518000Y-105704000D03*
D12*
X207518000Y-108204000D03*
%TD*%
D16*
%TO.C,RV2*%
X215438000Y-72056000D03*
D17*
X215438000Y-67056000D03*
X215438000Y-62056000D03*
%TD*%
D18*
%TO.C,H3*%
X215138000Y-134620000D03*
%TD*%
D12*
%TO.C,R24*%
X205740000Y-96520000D03*
D13*
X205740000Y-86360000D03*
%TD*%
M02*
