%TF.GenerationSoftware,KiCad,Pcbnew,8.0.4*%
%TF.CreationDate,2025-09-18T13:33:47+03:00*%
%TF.ProjectId,EEG_PCB,4545475f-5043-4422-9e6b-696361645f70,rev?*%
%TF.SameCoordinates,Original*%
%TF.FileFunction,Other,User*%
%FSLAX46Y46*%
G04 Gerber Fmt 4.6, Leading zero omitted, Abs format (unit mm)*
G04 Created by KiCad (PCBNEW 8.0.4) date 2025-09-18 13:33:47*
%MOMM*%
%LPD*%
G01*
G04 APERTURE LIST*
%ADD10C,0.150000*%
%ADD11C,0.100000*%
G04 APERTURE END LIST*
D10*
X109304819Y-99523809D02*
X109304819Y-100095237D01*
X109304819Y-99809523D02*
X108304819Y-99809523D01*
X108304819Y-99809523D02*
X108447676Y-99904761D01*
X108447676Y-99904761D02*
X108542914Y-99999999D01*
X108542914Y-99999999D02*
X108590533Y-100095237D01*
X108304819Y-98904761D02*
X108304819Y-98809523D01*
X108304819Y-98809523D02*
X108352438Y-98714285D01*
X108352438Y-98714285D02*
X108400057Y-98666666D01*
X108400057Y-98666666D02*
X108495295Y-98619047D01*
X108495295Y-98619047D02*
X108685771Y-98571428D01*
X108685771Y-98571428D02*
X108923866Y-98571428D01*
X108923866Y-98571428D02*
X109114342Y-98619047D01*
X109114342Y-98619047D02*
X109209580Y-98666666D01*
X109209580Y-98666666D02*
X109257200Y-98714285D01*
X109257200Y-98714285D02*
X109304819Y-98809523D01*
X109304819Y-98809523D02*
X109304819Y-98904761D01*
X109304819Y-98904761D02*
X109257200Y-98999999D01*
X109257200Y-98999999D02*
X109209580Y-99047618D01*
X109209580Y-99047618D02*
X109114342Y-99095237D01*
X109114342Y-99095237D02*
X108923866Y-99142856D01*
X108923866Y-99142856D02*
X108685771Y-99142856D01*
X108685771Y-99142856D02*
X108495295Y-99095237D01*
X108495295Y-99095237D02*
X108400057Y-99047618D01*
X108400057Y-99047618D02*
X108352438Y-98999999D01*
X108352438Y-98999999D02*
X108304819Y-98904761D01*
X108304819Y-97952380D02*
X108304819Y-97857142D01*
X108304819Y-97857142D02*
X108352438Y-97761904D01*
X108352438Y-97761904D02*
X108400057Y-97714285D01*
X108400057Y-97714285D02*
X108495295Y-97666666D01*
X108495295Y-97666666D02*
X108685771Y-97619047D01*
X108685771Y-97619047D02*
X108923866Y-97619047D01*
X108923866Y-97619047D02*
X109114342Y-97666666D01*
X109114342Y-97666666D02*
X109209580Y-97714285D01*
X109209580Y-97714285D02*
X109257200Y-97761904D01*
X109257200Y-97761904D02*
X109304819Y-97857142D01*
X109304819Y-97857142D02*
X109304819Y-97952380D01*
X109304819Y-97952380D02*
X109257200Y-98047618D01*
X109257200Y-98047618D02*
X109209580Y-98095237D01*
X109209580Y-98095237D02*
X109114342Y-98142856D01*
X109114342Y-98142856D02*
X108923866Y-98190475D01*
X108923866Y-98190475D02*
X108685771Y-98190475D01*
X108685771Y-98190475D02*
X108495295Y-98142856D01*
X108495295Y-98142856D02*
X108400057Y-98095237D01*
X108400057Y-98095237D02*
X108352438Y-98047618D01*
X108352438Y-98047618D02*
X108304819Y-97952380D01*
X109209580Y-97190475D02*
X109257200Y-97142856D01*
X109257200Y-97142856D02*
X109304819Y-97190475D01*
X109304819Y-97190475D02*
X109257200Y-97238094D01*
X109257200Y-97238094D02*
X109209580Y-97190475D01*
X109209580Y-97190475D02*
X109304819Y-97190475D01*
X108304819Y-96523809D02*
X108304819Y-96428571D01*
X108304819Y-96428571D02*
X108352438Y-96333333D01*
X108352438Y-96333333D02*
X108400057Y-96285714D01*
X108400057Y-96285714D02*
X108495295Y-96238095D01*
X108495295Y-96238095D02*
X108685771Y-96190476D01*
X108685771Y-96190476D02*
X108923866Y-96190476D01*
X108923866Y-96190476D02*
X109114342Y-96238095D01*
X109114342Y-96238095D02*
X109209580Y-96285714D01*
X109209580Y-96285714D02*
X109257200Y-96333333D01*
X109257200Y-96333333D02*
X109304819Y-96428571D01*
X109304819Y-96428571D02*
X109304819Y-96523809D01*
X109304819Y-96523809D02*
X109257200Y-96619047D01*
X109257200Y-96619047D02*
X109209580Y-96666666D01*
X109209580Y-96666666D02*
X109114342Y-96714285D01*
X109114342Y-96714285D02*
X108923866Y-96761904D01*
X108923866Y-96761904D02*
X108685771Y-96761904D01*
X108685771Y-96761904D02*
X108495295Y-96714285D01*
X108495295Y-96714285D02*
X108400057Y-96666666D01*
X108400057Y-96666666D02*
X108352438Y-96619047D01*
X108352438Y-96619047D02*
X108304819Y-96523809D01*
X108304819Y-95571428D02*
X108304819Y-95476190D01*
X108304819Y-95476190D02*
X108352438Y-95380952D01*
X108352438Y-95380952D02*
X108400057Y-95333333D01*
X108400057Y-95333333D02*
X108495295Y-95285714D01*
X108495295Y-95285714D02*
X108685771Y-95238095D01*
X108685771Y-95238095D02*
X108923866Y-95238095D01*
X108923866Y-95238095D02*
X109114342Y-95285714D01*
X109114342Y-95285714D02*
X109209580Y-95333333D01*
X109209580Y-95333333D02*
X109257200Y-95380952D01*
X109257200Y-95380952D02*
X109304819Y-95476190D01*
X109304819Y-95476190D02*
X109304819Y-95571428D01*
X109304819Y-95571428D02*
X109257200Y-95666666D01*
X109257200Y-95666666D02*
X109209580Y-95714285D01*
X109209580Y-95714285D02*
X109114342Y-95761904D01*
X109114342Y-95761904D02*
X108923866Y-95809523D01*
X108923866Y-95809523D02*
X108685771Y-95809523D01*
X108685771Y-95809523D02*
X108495295Y-95761904D01*
X108495295Y-95761904D02*
X108400057Y-95714285D01*
X108400057Y-95714285D02*
X108352438Y-95666666D01*
X108352438Y-95666666D02*
X108304819Y-95571428D01*
X108304819Y-94619047D02*
X108304819Y-94523809D01*
X108304819Y-94523809D02*
X108352438Y-94428571D01*
X108352438Y-94428571D02*
X108400057Y-94380952D01*
X108400057Y-94380952D02*
X108495295Y-94333333D01*
X108495295Y-94333333D02*
X108685771Y-94285714D01*
X108685771Y-94285714D02*
X108923866Y-94285714D01*
X108923866Y-94285714D02*
X109114342Y-94333333D01*
X109114342Y-94333333D02*
X109209580Y-94380952D01*
X109209580Y-94380952D02*
X109257200Y-94428571D01*
X109257200Y-94428571D02*
X109304819Y-94523809D01*
X109304819Y-94523809D02*
X109304819Y-94619047D01*
X109304819Y-94619047D02*
X109257200Y-94714285D01*
X109257200Y-94714285D02*
X109209580Y-94761904D01*
X109209580Y-94761904D02*
X109114342Y-94809523D01*
X109114342Y-94809523D02*
X108923866Y-94857142D01*
X108923866Y-94857142D02*
X108685771Y-94857142D01*
X108685771Y-94857142D02*
X108495295Y-94809523D01*
X108495295Y-94809523D02*
X108400057Y-94761904D01*
X108400057Y-94761904D02*
X108352438Y-94714285D01*
X108352438Y-94714285D02*
X108304819Y-94619047D01*
X108304819Y-93666666D02*
X108304819Y-93571428D01*
X108304819Y-93571428D02*
X108352438Y-93476190D01*
X108352438Y-93476190D02*
X108400057Y-93428571D01*
X108400057Y-93428571D02*
X108495295Y-93380952D01*
X108495295Y-93380952D02*
X108685771Y-93333333D01*
X108685771Y-93333333D02*
X108923866Y-93333333D01*
X108923866Y-93333333D02*
X109114342Y-93380952D01*
X109114342Y-93380952D02*
X109209580Y-93428571D01*
X109209580Y-93428571D02*
X109257200Y-93476190D01*
X109257200Y-93476190D02*
X109304819Y-93571428D01*
X109304819Y-93571428D02*
X109304819Y-93666666D01*
X109304819Y-93666666D02*
X109257200Y-93761904D01*
X109257200Y-93761904D02*
X109209580Y-93809523D01*
X109209580Y-93809523D02*
X109114342Y-93857142D01*
X109114342Y-93857142D02*
X108923866Y-93904761D01*
X108923866Y-93904761D02*
X108685771Y-93904761D01*
X108685771Y-93904761D02*
X108495295Y-93857142D01*
X108495295Y-93857142D02*
X108400057Y-93809523D01*
X108400057Y-93809523D02*
X108352438Y-93761904D01*
X108352438Y-93761904D02*
X108304819Y-93666666D01*
X109304819Y-92142856D02*
X108638152Y-92142856D01*
X108733390Y-92142856D02*
X108685771Y-92095237D01*
X108685771Y-92095237D02*
X108638152Y-91999999D01*
X108638152Y-91999999D02*
X108638152Y-91857142D01*
X108638152Y-91857142D02*
X108685771Y-91761904D01*
X108685771Y-91761904D02*
X108781009Y-91714285D01*
X108781009Y-91714285D02*
X109304819Y-91714285D01*
X108781009Y-91714285D02*
X108685771Y-91666666D01*
X108685771Y-91666666D02*
X108638152Y-91571428D01*
X108638152Y-91571428D02*
X108638152Y-91428571D01*
X108638152Y-91428571D02*
X108685771Y-91333332D01*
X108685771Y-91333332D02*
X108781009Y-91285713D01*
X108781009Y-91285713D02*
X109304819Y-91285713D01*
X109304819Y-90809523D02*
X108638152Y-90809523D01*
X108733390Y-90809523D02*
X108685771Y-90761904D01*
X108685771Y-90761904D02*
X108638152Y-90666666D01*
X108638152Y-90666666D02*
X108638152Y-90523809D01*
X108638152Y-90523809D02*
X108685771Y-90428571D01*
X108685771Y-90428571D02*
X108781009Y-90380952D01*
X108781009Y-90380952D02*
X109304819Y-90380952D01*
X108781009Y-90380952D02*
X108685771Y-90333333D01*
X108685771Y-90333333D02*
X108638152Y-90238095D01*
X108638152Y-90238095D02*
X108638152Y-90095238D01*
X108638152Y-90095238D02*
X108685771Y-89999999D01*
X108685771Y-89999999D02*
X108781009Y-89952380D01*
X108781009Y-89952380D02*
X109304819Y-89952380D01*
D11*
X129500000Y-145000000D02*
X109413580Y-145000000D01*
X129500000Y-45000000D02*
X109413580Y-45000000D01*
X110000000Y-145000000D02*
X110000000Y-45000000D01*
X110000000Y-145000000D02*
X110000000Y-45000000D01*
X110000000Y-145000000D02*
X109413579Y-143873496D01*
X110000000Y-145000000D02*
X110586421Y-143873496D01*
X110000000Y-45000000D02*
X110586421Y-46126504D01*
X110000000Y-45000000D02*
X109413579Y-46126504D01*
D10*
X175571429Y-168733390D02*
X175476191Y-168685771D01*
X175476191Y-168685771D02*
X175428572Y-168638152D01*
X175428572Y-168638152D02*
X175380953Y-168542914D01*
X175380953Y-168542914D02*
X175380953Y-168495295D01*
X175380953Y-168495295D02*
X175428572Y-168400057D01*
X175428572Y-168400057D02*
X175476191Y-168352438D01*
X175476191Y-168352438D02*
X175571429Y-168304819D01*
X175571429Y-168304819D02*
X175761905Y-168304819D01*
X175761905Y-168304819D02*
X175857143Y-168352438D01*
X175857143Y-168352438D02*
X175904762Y-168400057D01*
X175904762Y-168400057D02*
X175952381Y-168495295D01*
X175952381Y-168495295D02*
X175952381Y-168542914D01*
X175952381Y-168542914D02*
X175904762Y-168638152D01*
X175904762Y-168638152D02*
X175857143Y-168685771D01*
X175857143Y-168685771D02*
X175761905Y-168733390D01*
X175761905Y-168733390D02*
X175571429Y-168733390D01*
X175571429Y-168733390D02*
X175476191Y-168781009D01*
X175476191Y-168781009D02*
X175428572Y-168828628D01*
X175428572Y-168828628D02*
X175380953Y-168923866D01*
X175380953Y-168923866D02*
X175380953Y-169114342D01*
X175380953Y-169114342D02*
X175428572Y-169209580D01*
X175428572Y-169209580D02*
X175476191Y-169257200D01*
X175476191Y-169257200D02*
X175571429Y-169304819D01*
X175571429Y-169304819D02*
X175761905Y-169304819D01*
X175761905Y-169304819D02*
X175857143Y-169257200D01*
X175857143Y-169257200D02*
X175904762Y-169209580D01*
X175904762Y-169209580D02*
X175952381Y-169114342D01*
X175952381Y-169114342D02*
X175952381Y-168923866D01*
X175952381Y-168923866D02*
X175904762Y-168828628D01*
X175904762Y-168828628D02*
X175857143Y-168781009D01*
X175857143Y-168781009D02*
X175761905Y-168733390D01*
X176571429Y-168304819D02*
X176666667Y-168304819D01*
X176666667Y-168304819D02*
X176761905Y-168352438D01*
X176761905Y-168352438D02*
X176809524Y-168400057D01*
X176809524Y-168400057D02*
X176857143Y-168495295D01*
X176857143Y-168495295D02*
X176904762Y-168685771D01*
X176904762Y-168685771D02*
X176904762Y-168923866D01*
X176904762Y-168923866D02*
X176857143Y-169114342D01*
X176857143Y-169114342D02*
X176809524Y-169209580D01*
X176809524Y-169209580D02*
X176761905Y-169257200D01*
X176761905Y-169257200D02*
X176666667Y-169304819D01*
X176666667Y-169304819D02*
X176571429Y-169304819D01*
X176571429Y-169304819D02*
X176476191Y-169257200D01*
X176476191Y-169257200D02*
X176428572Y-169209580D01*
X176428572Y-169209580D02*
X176380953Y-169114342D01*
X176380953Y-169114342D02*
X176333334Y-168923866D01*
X176333334Y-168923866D02*
X176333334Y-168685771D01*
X176333334Y-168685771D02*
X176380953Y-168495295D01*
X176380953Y-168495295D02*
X176428572Y-168400057D01*
X176428572Y-168400057D02*
X176476191Y-168352438D01*
X176476191Y-168352438D02*
X176571429Y-168304819D01*
X177333334Y-169209580D02*
X177380953Y-169257200D01*
X177380953Y-169257200D02*
X177333334Y-169304819D01*
X177333334Y-169304819D02*
X177285715Y-169257200D01*
X177285715Y-169257200D02*
X177333334Y-169209580D01*
X177333334Y-169209580D02*
X177333334Y-169304819D01*
X178000000Y-168304819D02*
X178095238Y-168304819D01*
X178095238Y-168304819D02*
X178190476Y-168352438D01*
X178190476Y-168352438D02*
X178238095Y-168400057D01*
X178238095Y-168400057D02*
X178285714Y-168495295D01*
X178285714Y-168495295D02*
X178333333Y-168685771D01*
X178333333Y-168685771D02*
X178333333Y-168923866D01*
X178333333Y-168923866D02*
X178285714Y-169114342D01*
X178285714Y-169114342D02*
X178238095Y-169209580D01*
X178238095Y-169209580D02*
X178190476Y-169257200D01*
X178190476Y-169257200D02*
X178095238Y-169304819D01*
X178095238Y-169304819D02*
X178000000Y-169304819D01*
X178000000Y-169304819D02*
X177904762Y-169257200D01*
X177904762Y-169257200D02*
X177857143Y-169209580D01*
X177857143Y-169209580D02*
X177809524Y-169114342D01*
X177809524Y-169114342D02*
X177761905Y-168923866D01*
X177761905Y-168923866D02*
X177761905Y-168685771D01*
X177761905Y-168685771D02*
X177809524Y-168495295D01*
X177809524Y-168495295D02*
X177857143Y-168400057D01*
X177857143Y-168400057D02*
X177904762Y-168352438D01*
X177904762Y-168352438D02*
X178000000Y-168304819D01*
X178952381Y-168304819D02*
X179047619Y-168304819D01*
X179047619Y-168304819D02*
X179142857Y-168352438D01*
X179142857Y-168352438D02*
X179190476Y-168400057D01*
X179190476Y-168400057D02*
X179238095Y-168495295D01*
X179238095Y-168495295D02*
X179285714Y-168685771D01*
X179285714Y-168685771D02*
X179285714Y-168923866D01*
X179285714Y-168923866D02*
X179238095Y-169114342D01*
X179238095Y-169114342D02*
X179190476Y-169209580D01*
X179190476Y-169209580D02*
X179142857Y-169257200D01*
X179142857Y-169257200D02*
X179047619Y-169304819D01*
X179047619Y-169304819D02*
X178952381Y-169304819D01*
X178952381Y-169304819D02*
X178857143Y-169257200D01*
X178857143Y-169257200D02*
X178809524Y-169209580D01*
X178809524Y-169209580D02*
X178761905Y-169114342D01*
X178761905Y-169114342D02*
X178714286Y-168923866D01*
X178714286Y-168923866D02*
X178714286Y-168685771D01*
X178714286Y-168685771D02*
X178761905Y-168495295D01*
X178761905Y-168495295D02*
X178809524Y-168400057D01*
X178809524Y-168400057D02*
X178857143Y-168352438D01*
X178857143Y-168352438D02*
X178952381Y-168304819D01*
X179904762Y-168304819D02*
X180000000Y-168304819D01*
X180000000Y-168304819D02*
X180095238Y-168352438D01*
X180095238Y-168352438D02*
X180142857Y-168400057D01*
X180142857Y-168400057D02*
X180190476Y-168495295D01*
X180190476Y-168495295D02*
X180238095Y-168685771D01*
X180238095Y-168685771D02*
X180238095Y-168923866D01*
X180238095Y-168923866D02*
X180190476Y-169114342D01*
X180190476Y-169114342D02*
X180142857Y-169209580D01*
X180142857Y-169209580D02*
X180095238Y-169257200D01*
X180095238Y-169257200D02*
X180000000Y-169304819D01*
X180000000Y-169304819D02*
X179904762Y-169304819D01*
X179904762Y-169304819D02*
X179809524Y-169257200D01*
X179809524Y-169257200D02*
X179761905Y-169209580D01*
X179761905Y-169209580D02*
X179714286Y-169114342D01*
X179714286Y-169114342D02*
X179666667Y-168923866D01*
X179666667Y-168923866D02*
X179666667Y-168685771D01*
X179666667Y-168685771D02*
X179714286Y-168495295D01*
X179714286Y-168495295D02*
X179761905Y-168400057D01*
X179761905Y-168400057D02*
X179809524Y-168352438D01*
X179809524Y-168352438D02*
X179904762Y-168304819D01*
X180857143Y-168304819D02*
X180952381Y-168304819D01*
X180952381Y-168304819D02*
X181047619Y-168352438D01*
X181047619Y-168352438D02*
X181095238Y-168400057D01*
X181095238Y-168400057D02*
X181142857Y-168495295D01*
X181142857Y-168495295D02*
X181190476Y-168685771D01*
X181190476Y-168685771D02*
X181190476Y-168923866D01*
X181190476Y-168923866D02*
X181142857Y-169114342D01*
X181142857Y-169114342D02*
X181095238Y-169209580D01*
X181095238Y-169209580D02*
X181047619Y-169257200D01*
X181047619Y-169257200D02*
X180952381Y-169304819D01*
X180952381Y-169304819D02*
X180857143Y-169304819D01*
X180857143Y-169304819D02*
X180761905Y-169257200D01*
X180761905Y-169257200D02*
X180714286Y-169209580D01*
X180714286Y-169209580D02*
X180666667Y-169114342D01*
X180666667Y-169114342D02*
X180619048Y-168923866D01*
X180619048Y-168923866D02*
X180619048Y-168685771D01*
X180619048Y-168685771D02*
X180666667Y-168495295D01*
X180666667Y-168495295D02*
X180714286Y-168400057D01*
X180714286Y-168400057D02*
X180761905Y-168352438D01*
X180761905Y-168352438D02*
X180857143Y-168304819D01*
X182380953Y-169304819D02*
X182380953Y-168638152D01*
X182380953Y-168733390D02*
X182428572Y-168685771D01*
X182428572Y-168685771D02*
X182523810Y-168638152D01*
X182523810Y-168638152D02*
X182666667Y-168638152D01*
X182666667Y-168638152D02*
X182761905Y-168685771D01*
X182761905Y-168685771D02*
X182809524Y-168781009D01*
X182809524Y-168781009D02*
X182809524Y-169304819D01*
X182809524Y-168781009D02*
X182857143Y-168685771D01*
X182857143Y-168685771D02*
X182952381Y-168638152D01*
X182952381Y-168638152D02*
X183095238Y-168638152D01*
X183095238Y-168638152D02*
X183190477Y-168685771D01*
X183190477Y-168685771D02*
X183238096Y-168781009D01*
X183238096Y-168781009D02*
X183238096Y-169304819D01*
X183714286Y-169304819D02*
X183714286Y-168638152D01*
X183714286Y-168733390D02*
X183761905Y-168685771D01*
X183761905Y-168685771D02*
X183857143Y-168638152D01*
X183857143Y-168638152D02*
X184000000Y-168638152D01*
X184000000Y-168638152D02*
X184095238Y-168685771D01*
X184095238Y-168685771D02*
X184142857Y-168781009D01*
X184142857Y-168781009D02*
X184142857Y-169304819D01*
X184142857Y-168781009D02*
X184190476Y-168685771D01*
X184190476Y-168685771D02*
X184285714Y-168638152D01*
X184285714Y-168638152D02*
X184428571Y-168638152D01*
X184428571Y-168638152D02*
X184523810Y-168685771D01*
X184523810Y-168685771D02*
X184571429Y-168781009D01*
X184571429Y-168781009D02*
X184571429Y-169304819D01*
D11*
X140000000Y-150500000D02*
X140000000Y-170586420D01*
X220000000Y-150500000D02*
X220000000Y-170586420D01*
X140000000Y-170000000D02*
X220000000Y-170000000D01*
X140000000Y-170000000D02*
X220000000Y-170000000D01*
X140000000Y-170000000D02*
X141126504Y-169413579D01*
X140000000Y-170000000D02*
X141126504Y-170586421D01*
X220000000Y-170000000D02*
X218873496Y-170586421D01*
X220000000Y-170000000D02*
X218873496Y-169413579D01*
M02*
